<svg width="129" height="229" viewBox="0 0 129 229" fill="none" xmlns="http://www.w3.org/2000/svg">
<path transform="translate(130, 0) scale(-1, 1)" d="M252.283 53.993C250.265 33.244 214.533 5.743 203.721 2.856C199.116 3.303 194.233 3.232 189.283 2.493C176.478 0.582 142.283 0.826 138.45 6.826C134.617 12.826 122.95 12.659 118.783 6.826C114.616 0.993 89.1161 2.326 73.4501 3.159C68.1561 3.44 62.5771 2.485 57.3911 1C49.3871 4.48 11.3581 27.426 5.26413 59.308C4.80513 61.71 4.52013 64.16 4.45013 66.659C3.45013 102.326 4.45313 138.769 4.28513 152.381C4.66813 152.285 13.9511 177.492 16.4511 183.159C18.9511 188.826 21.5331 200.993 25.0331 207.743C33.2831 215.493 71.7831 232.993 98.2831 225.993C124.783 218.993 134.783 219.749 163.283 226.121C191.783 232.493 215.951 223.327 236.367 198.91C237.617 195.66 241.117 187.16 241.7 183.91C242.283 180.66 244.367 176.911 245.784 174.161C247.201 171.411 253.239 152.486 253.789 152.985C254.461 139.643 253.45 65.994 252.283 53.993Z" fill="white" stroke="black"/>
<path d="M129 11V221" stroke="black"/>
</svg>
