<?xml version="1.0" standalone="no"?>
<!DOCTYPE svg PUBLIC "-//W3C//DTD SVG 20010904//EN"
 "http://www.w3.org/TR/2001/REC-SVG-20010904/DTD/svg10.dtd">
<svg version="1.0" xmlns="http://www.w3.org/2000/svg"
 width="1280.000000pt" height="2272.000000pt" viewBox="0 0 1280.000000 2272.000000"
 preserveAspectRatio="xMidYMid meet">
<metadata>
Created by potrace 1.16, written by Peter Selinger 2001-2019
</metadata>
<g transform="translate(0.000000,2272.000000) scale(0.100000,-0.100000)"
fill="#000000" stroke="none">
<path d="M7089 22675 c-11 -10 -329 -88 -514 -124 -302 -60 -493 -82 -770 -88
-226 -5 -315 -2 -1185 42 -535 27 -1562 35 -1955 15 -941 -47 -1474 -181
-1672 -418 -129 -155 -257 -259 -391 -319 -162 -72 -380 -123 -528 -123 l-74
0 0 -10459 0 -10458 68 -6 c37 -4 112 -7 167 -7 202 0 574 -33 905 -80 472
-67 906 -157 1578 -326 727 -182 908 -212 1438 -235 1062 -46 2396 201 3741
692 972 355 1920 840 2368 1211 95 79 98 82 148 187 128 271 253 630 482 1381
176 577 230 739 322 959 112 267 280 697 617 1572 506 1318 561 1453 581 1446
9 -4 13 234 18 1091 4 604 12 1648 18 2322 18 1979 -10 4900 -51 5395 -103
1211 -665 2390 -1709 3585 -167 192 -714 740 -916 920 -733 650 -1552 1236
-2312 1654 -127 70 -345 176 -361 176 -5 0 -11 -2 -13 -5z m154 -176 c552
-277 1307 -778 1947 -1293 545 -438 1098 -968 1503 -1440 936 -1091 1467
-2197 1592 -3316 36 -319 55 -1382 62 -3340 5 -1491 2 -2133 -23 -4843 l-6
-659 -40 -91 c-58 -132 -150 -367 -513 -1312 -385 -1000 -516 -1334 -625
-1595 -98 -235 -200 -535 -355 -1050 -203 -671 -338 -1059 -459 -1315 l-53
-111 -102 -82 c-601 -484 -1940 -1098 -3166 -1453 -1228 -356 -2374 -483
-3321 -369 -246 30 -405 62 -809 164 -1139 289 -1807 403 -2566 438 l-259 12
0 10352 0 10353 58 5 c242 25 389 64 557 146 142 70 232 135 317 232 129 146
170 182 263 230 386 197 1115 278 2375 265 576 -7 701 -11 1545 -53 477 -24
551 -25 735 -15 339 19 641 67 990 156 113 29 206 53 208 54 1 0 66 -31 145
-70z"/>
</g>
</svg>
